# xmcd CD database file
#
# Track frame offsets:
#	150
#	17975
#	39601
#	63020
#	88123
#	109986
#	131545
#	157221
#
# Disc length: 2384 seconds
#
# Revision: 0
# Processed by: cddbd v1.5.2PL0 Copyright (c) Steve Scherf et al.
# Submitted via: CDex 1.70beta2
#
DISCID=6a094e08
DTITLE=いえろ～ぜぶら - 東方輪衝歌 ～Moment of Impulse～
DYEAR=2008
DGENRE=東方アレンジ
TTITLE0=旅路 ～Power of Life
TTITLE1=BLUE
TTITLE2=I Get Around The Road
TTITLE3=白 ～shiro～
TTITLE4=Darling Star
TTITLE5=Worlds End
TTITLE6=Last Day Never Knows
TTITLE7=E・P・H・E・M・E・R・A ～儚～
EXTD=YEAR: 2008
EXTT0=
EXTT1=
EXTT2=
EXTT3=
EXTT4=
EXTT5=
EXTT6=
EXTT7=
PLAYORDER=
